<svg xmlns="http://www.w3.org/2000/svg" xmlns:xlink="http://www.w3.org/1999/xlink" version="1.1" id="Layer_1" x="0px" y="0px" enable-background="new 0 0 496 496" xml:space="preserve" viewBox="149.8 117.48 202.72 177.41">
<path fill="#008585" opacity="1.000000" stroke="none" d=" M254.864563,213.155334   C248.826355,208.964966 243.016953,205.066360 237.345566,200.976379   C232.727295,197.645874 228.710999,193.669205 225.542130,188.883194   C219.310791,179.471817 221.904251,168.077179 229.521439,162.012405   C237.847717,167.132324 241.921478,178.094849 238.520035,187.557480   C237.334076,190.856750 238.011368,192.655182 240.525101,194.773087   C250.089691,202.831512 254.669174,202.550583 263.376343,193.314804   C265.343567,191.228149 264.586456,189.426529 263.743896,187.405350   C260.778625,180.292145 262.545837,169.060715 272.395172,162.032516   C280.016479,167.785675 282.253601,178.268494 277.681671,186.988266   C274.506927,193.043182 269.592468,197.495483 264.188934,201.490784   C262.330841,202.864639 260.520660,204.303299 258.770630,205.649246   C258.901642,208.118378 260.872345,208.804367 262.115631,210.016296   C264.256622,212.103348 266.710327,213.893280 268.701782,216.105850   C276.833588,225.140442 276.404449,234.491013 267.517487,242.861511   C265.097382,245.140991 262.524841,247.287796 259.845337,249.254440   C257.202271,251.194397 257.089569,252.962234 259.247192,255.382172   C264.423218,261.187500 266.453369,268.007904 265.281708,275.734131   C264.713837,279.478943 263.310425,282.873901 260.218842,285.166870   C257.359009,287.287964 253.654327,288.443390 253.848022,293.149261   C253.898148,294.366821 252.077194,295.080902 250.636551,294.845551   C249.223236,294.614716 247.895233,293.664307 247.942474,292.274017   C248.062775,288.734436 245.735748,287.522644 243.151505,286.108337   C234.459366,281.351257 234.851212,264.367310 241.364395,257.477661   C242.771790,255.988922 243.953857,256.552490 245.257706,257.594910   C246.886246,258.896881 247.693451,260.304077 246.320160,262.272797   C243.943909,265.679321 242.823746,269.434052 243.366089,273.594879   C243.689835,276.078796 244.214264,278.486877 247.286942,279.748993   C248.399872,273.770599 246.871353,267.780731 248.315033,261.693115   C257.976379,265.195557 252.635574,273.559387 254.796982,279.240601   C258.655640,277.371307 260.013123,272.893433 258.234863,267.161499   C256.962585,263.060516 254.345337,259.797150 251.198685,257.015106   C245.960403,252.383850 240.482208,248.021622 235.290787,243.340118   C221.578171,230.974380 228.232880,219.246323 238.966797,210.815933   C241.980042,208.449356 243.664444,211.313721 245.921387,213.211761   C241.563568,218.889328 233.001480,222.322220 234.907303,230.928238   C236.250626,236.994339 241.973175,240.216049 247.656082,244.637268   C247.656082,234.221680 247.656082,224.866821 247.656082,215.174118   C252.421829,215.914642 254.494904,217.851730 254.381927,222.193054   C254.197388,229.283249 254.332047,236.381744 254.332047,243.549988   C255.257278,243.440933 255.642624,243.511612 255.862656,243.352997   C269.680511,233.390366 273.756805,226.734573 254.864563,213.155334  M232.635468,177.223114   C232.217789,175.745865 232.231430,173.986588 230.033737,173.231430   C228.776306,177.253250 228.467514,180.771210 231.399139,184.458954   C233.335754,181.928024 232.623383,179.895645 232.635468,177.223114  M273.122650,179.020981   C273.429077,177.068405 273.458466,175.207977 271.439514,173.629562   C269.235168,177.103363 268.391479,180.289093 270.454163,183.855118   C272.741699,183.086945 272.585052,181.237839 273.122650,179.020981  z"/>
<path fill="#008585" opacity="1.000000" stroke="none" d=" M278.981506,129.779526   C276.790710,136.774948 274.630280,143.420914 268.869843,148.110382   C266.298523,150.203644 263.717377,152.226624 260.024994,152.411896   C258.624542,149.040497 258.391663,146.059082 261.516754,143.806534   C266.366272,140.311020 268.893616,135.494827 270.534637,129.860779   C273.213531,120.663536 276.864960,118.992210 285.228058,123.308739   C303.194885,132.582108 322.628510,135.794022 342.413544,137.747726   C345.701416,138.072403 348.972687,138.564865 352.278076,138.983139   C352.376221,139.751999 352.650482,140.341034 352.463898,140.662598   C343.118958,156.766846 330.549042,168.279221 310.860535,169.258698   C307.753113,169.413269 306.713806,170.578903 306.000885,173.535034   C303.559052,183.660507 296.925323,189.066330 288.158875,188.368317   C288.114349,184.773926 288.492218,181.561813 292.437317,179.862030   C294.121552,179.136337 295.378815,177.727402 296.456970,176.197113   C300.124878,170.990891 299.450775,168.986404 293.423370,167.211212   C291.827820,166.741257 290.245087,166.213394 288.690308,165.623047   C286.607086,164.831985 284.288055,163.830353 285.230194,161.091003   C286.089935,158.591232 288.517731,158.638031 290.762421,159.070587   C294.515930,159.793930 298.242401,160.679337 302.015045,161.276993   C308.325378,162.276749 314.478363,161.604965 321.555725,158.903336   C312.592468,156.972656 304.480316,156.217636 296.910278,153.313751   C293.031799,151.825958 289.226898,150.136719 285.436462,148.432449   C283.004242,147.338852 280.770752,145.664032 282.236084,142.701782   C283.709686,139.722778 286.360779,140.612900 288.746765,141.773193   C301.574860,148.011475 315.328979,149.978134 329.376190,150.857224   C334.058563,151.150238 337.048553,149.530045 338.856354,144.850128   C331.744415,143.877319 324.711670,143.179855 317.784088,141.909088   C305.783264,139.707703 294.269135,135.908142 283.334137,130.418640   C282.080688,129.789383 280.829956,128.564819 278.981506,129.779526  z"/>
<path fill="#008585" opacity="1.000000" stroke="none" d=" M163.600922,137.590393   C179.351898,135.310944 194.675476,133.138794 209.048096,126.969833   C212.409103,125.527237 215.623489,123.740021 218.996078,122.328056   C225.208740,119.727028 228.992081,121.244987 230.925903,127.695770   C232.931976,134.387589 235.375763,140.470139 241.575027,144.543900   C244.448746,146.432327 243.053864,149.557770 242.736282,153.095581   C230.273438,149.307419 225.860321,139.848083 223.063766,128.427963   C203.965958,138.100677 184.257294,143.463196 162.979980,144.472839   C164.962585,149.007904 167.464905,151.169861 172.274170,150.879105   C186.481674,150.020203 200.391159,148.068756 213.386826,141.803223   C215.709686,140.683304 218.376740,139.610336 219.857788,142.721756   C221.258820,145.665009 219.139648,147.226273 216.714401,148.494217   C205.933746,154.130386 194.274185,156.643555 182.368713,158.324722   C181.782852,158.407471 181.025696,158.139725 180.675568,159.145035   C189.537323,162.652847 198.455490,161.966751 207.496826,159.977249   C210.667847,159.279480 215.392700,156.798325 216.676193,161.287537   C218.039459,166.055862 212.329651,165.472000 209.549042,166.963562   C207.506241,168.059357 203.781555,167.173599 203.606308,170.301178   C203.392944,174.109406 205.526978,177.634796 208.941833,179.315552   C212.881821,181.254807 213.945938,184.192978 214.028305,188.041763   C208.151184,189.330505 200.795090,186.306854 198.914444,179.683289   C196.451080,171.007355 191.158112,169.408295 183.273880,167.983841   C167.631866,165.157776 157.552124,154.222275 149.904373,140.896835   C149.694672,140.531479 149.877899,139.940598 149.877899,139.219193   C154.277817,138.267334 158.674774,137.655991 163.600922,137.590393  z"/>
<path fill="#008585" opacity="1.000000" stroke="none" d=" M327.845398,223.819336   C335.439148,228.728622 338.195099,236.267044 335.995361,245.311844   C334.104187,253.087921 327.057220,258.535522 317.886292,259.279968   C316.727020,259.374115 315.557343,259.349457 314.392273,259.360565   C307.039764,259.430664 306.871552,259.726074 307.227203,266.938293   C307.362549,269.683533 308.400452,270.961517 311.096954,270.870605   C314.781097,270.746429 315.404877,272.888672 315.337524,276.025818   C315.259949,279.638977 312.864990,279.364044 310.518768,279.368530   C305.025421,279.378998 299.531982,279.364777 294.038605,279.351715   C292.313019,279.347626 290.531006,279.258057 290.249237,277.043549   C289.979706,274.925232 289.472046,272.490570 292.277527,271.592926   C295.290924,270.628815 295.701294,268.471527 295.680573,265.743164   C295.603394,255.589218 295.612885,245.434036 295.679749,235.279907   C295.697205,232.630783 295.517334,230.513763 292.417847,229.427582   C289.723175,228.483307 290.853638,225.753799 290.779602,223.717712   C290.718842,222.047012 291.960297,221.299103 293.383636,221.298111   C304.806213,221.290039 316.323669,220.011429 327.845398,223.819336  M314.822693,231.024994   C307.491425,230.331635 307.270355,230.533585 307.275299,237.932724   C307.276398,239.587173 307.282593,241.241638 307.285034,242.896088   C307.295685,250.090851 307.501068,250.276062 314.937408,249.790237   C321.208099,249.380569 324.462494,246.390411 324.676422,240.841934   C324.924622,234.404694 322.621704,231.930588 314.822693,231.024994  z"/>
<path fill="#008585" opacity="1.000000" stroke="none" d=" M207.773804,269.359985   C205.348953,274.772827 201.391251,277.934631 196.157059,279.311127   C188.760086,281.256317 181.373444,280.841644 174.045868,278.628693   C170.880081,277.672638 169.313568,275.880127 169.641113,272.460388   C169.830658,270.481354 169.802536,268.461334 169.660721,266.474854   C169.351288,262.140747 172.579346,262.372650 175.310699,261.979065   C178.407013,261.532837 179.520081,263.090820 179.366638,266.016357   C179.196671,269.256592 181.255875,270.452820 184.061523,270.586792   C186.208923,270.689392 188.449249,270.800446 190.509872,270.317413   C193.749969,269.557892 196.334518,267.770813 196.621109,263.995239   C196.886322,260.500977 195.054321,258.283691 192.000290,257.076630   C189.072479,255.919479 186.033768,255.045700 183.059189,254.003464   C172.260147,250.219742 167.972794,243.648346 169.811340,233.737915   C171.309769,225.660721 179.525009,219.897125 189.509796,220.279922   C193.466614,220.431625 197.454132,220.725525 201.341049,221.863434   C204.805054,222.877563 206.928070,224.530991 206.389542,228.517303   C206.168777,230.151566 206.235077,231.850632 206.376999,233.502487   C206.680801,237.038742 204.874039,238.136475 201.635941,238.273544   C198.502609,238.406143 196.362152,237.891693 196.643250,234.078812   C196.796829,231.995300 195.917908,230.429291 193.618546,230.308289   C189.519836,230.092636 185.142700,229.128906 182.371704,233.527145   C180.984665,235.728683 181.078278,237.901215 182.685287,240.020950   C183.955856,241.696884 185.715347,242.600647 187.595932,243.299011   C190.399429,244.340073 193.283249,245.175339 196.051849,246.298035   C207.449219,250.919769 210.646988,257.089478 207.773804,269.359985  z"/>
<path fill="#008585" opacity="1.000000" stroke="none" d=" M247.673920,190.704742   C247.671341,174.741821 247.618317,159.243515 247.715149,143.746109   C247.734085,140.718033 247.131882,138.573349 244.434998,136.585266   C239.210526,132.733917 238.954681,125.506371 243.354630,120.735687   C247.225250,116.538925 254.767960,116.371643 258.665192,120.396172   C263.163849,125.041779 263.253296,132.484772 258.166229,136.297226   C254.841995,138.788528 254.255142,141.538437 254.287552,145.240891   C254.420288,160.404434 254.340240,175.569809 254.345123,190.734512   C254.345932,193.273575 254.538376,196.353302 251.216370,196.559189   C247.795685,196.771194 247.639511,193.793579 247.673920,190.704742  M247.563675,130.950226   C249.883011,133.219727 252.257065,133.379257 254.481705,130.912018   C255.990036,129.239212 256.173187,127.266045 254.738937,125.446320   C253.412598,123.763481 251.601288,122.703583 249.496490,123.819000   C246.858643,125.216881 245.450165,127.302704 247.563675,130.950226  z"/>
</svg>